<svg width="45" height="45" viewBox="0 0 45 45" fill="none" xmlns="http://www.w3.org/2000/svg">
<rect width="45" height="45" fill="#D9D9D9"/>
<path d="M2.64063 25.3594V24.5625L6.15625 19H6.73438V20.2344H6.34375L3.6875 24.4375V24.5H8.42187V25.3594H2.64063ZM6.40625 27V25.1172V24.7461V19H7.32812V27H6.40625ZM12.3857 27.1094C11.9274 27.1094 11.5146 27.0182 11.1475 26.8359C10.7803 26.6536 10.486 26.4036 10.2646 26.0859C10.0433 25.7682 9.9222 25.4062 9.90137 25H10.8389C10.8753 25.362 11.0394 25.6615 11.3311 25.8984C11.6253 26.1328 11.9769 26.25 12.3857 26.25C12.7139 26.25 13.0055 26.1732 13.2607 26.0195C13.5186 25.8659 13.7204 25.6549 13.8662 25.3867C14.0146 25.1159 14.0889 24.8099 14.0889 24.4687C14.0889 24.1198 14.012 23.8086 13.8584 23.5352C13.7074 23.2591 13.499 23.0417 13.2334 22.8828C12.9678 22.724 12.6644 22.6432 12.3232 22.6406C12.0785 22.638 11.8271 22.6758 11.5693 22.7539C11.3115 22.8294 11.0993 22.9271 10.9326 23.0469L10.0264 22.9375L10.5107 19H14.667V19.8594H11.3232L11.042 22.2187H11.0889C11.2529 22.0885 11.4587 21.9805 11.7061 21.8945C11.9535 21.8086 12.2113 21.7656 12.4795 21.7656C12.9691 21.7656 13.4053 21.8828 13.7881 22.1172C14.1735 22.349 14.4756 22.6667 14.6943 23.0703C14.9157 23.474 15.0264 23.9349 15.0264 24.4531C15.0264 24.9635 14.9118 25.4193 14.6826 25.8203C14.4561 26.2187 14.1436 26.5339 13.7451 26.7656C13.3467 26.9948 12.8936 27.1094 12.3857 27.1094ZM20.2813 19L22.3437 22.3281H22.4063L24.4687 19H25.6094L23.0938 23L25.6094 27H24.4687L22.4063 23.7344H22.3437L20.2813 27H19.1406L21.7188 23L19.1406 19H20.2813ZM29.6357 25.3594V24.5625L33.1514 19H33.7295V20.2344H33.3389L30.6826 24.4375V24.5H35.417V25.3594H29.6357ZM33.4014 27V25.1172V24.7461V19H34.3232V27H33.4014ZM39.3809 27.1094C38.9225 27.1094 38.5098 27.0182 38.1426 26.8359C37.7754 26.6536 37.4811 26.4036 37.2598 26.0859C37.0384 25.7682 36.9173 25.4062 36.8965 25H37.834C37.8704 25.362 38.0345 25.6615 38.3262 25.8984C38.6204 26.1328 38.972 26.25 39.3809 26.25C39.709 26.25 40.0007 26.1732 40.2559 26.0195C40.5137 25.8659 40.7155 25.6549 40.8613 25.3867C41.0098 25.1159 41.084 24.8099 41.084 24.4687C41.084 24.1198 41.0072 23.8086 40.8535 23.5352C40.7025 23.2591 40.4941 23.0417 40.2285 22.8828C39.9629 22.724 39.6595 22.6432 39.3184 22.6406C39.0736 22.638 38.8223 22.6758 38.5645 22.7539C38.3066 22.8294 38.0944 22.9271 37.9277 23.0469L37.0215 22.9375L37.5059 19H41.6621V19.8594H38.3184L38.0371 22.2187H38.084C38.248 22.0885 38.4538 21.9805 38.7012 21.8945C38.9486 21.8086 39.2064 21.7656 39.4746 21.7656C39.9642 21.7656 40.4004 21.8828 40.7832 22.1172C41.1686 22.349 41.4707 22.6667 41.6895 23.0703C41.9108 23.474 42.0215 23.9349 42.0215 24.4531C42.0215 24.9635 41.9069 25.4193 41.6777 25.8203C41.4512 26.2187 41.1387 26.5339 40.7402 26.7656C40.3418 26.9948 39.8887 27.1094 39.3809 27.1094Z" fill="black"/>
</svg>
