<svg width="1200" height="800" viewBox="0 0 1200 800" fill="none" xmlns="http://www.w3.org/2000/svg">
<rect width="1200" height="800" fill="#D9D9D9"/>
<path d="M449.182 377.455V424H443.545V383.364H443.273L431.909 390.909V385.182L443.545 377.455H449.182ZM462.568 424V419.909L477.932 403.091C479.735 401.121 481.22 399.409 482.386 397.955C483.553 396.485 484.417 395.106 484.977 393.818C485.553 392.515 485.841 391.152 485.841 389.727C485.841 388.091 485.447 386.674 484.659 385.477C483.886 384.28 482.826 383.356 481.477 382.705C480.129 382.053 478.614 381.727 476.932 381.727C475.144 381.727 473.583 382.098 472.25 382.841C470.932 383.568 469.909 384.591 469.182 385.909C468.47 387.227 468.114 388.773 468.114 390.545H462.75C462.75 387.818 463.379 385.424 464.636 383.364C465.894 381.303 467.606 379.697 469.773 378.545C471.955 377.394 474.402 376.818 477.114 376.818C479.841 376.818 482.258 377.394 484.364 378.545C486.47 379.697 488.121 381.25 489.318 383.205C490.515 385.159 491.114 387.333 491.114 389.727C491.114 391.439 490.803 393.114 490.182 394.75C489.576 396.371 488.515 398.182 487 400.182C485.5 402.167 483.417 404.591 480.75 407.455L470.295 418.636V419H491.932V424H462.568ZM516.5 424.636C513.076 424.636 510.159 423.705 507.75 421.841C505.341 419.962 503.5 417.242 502.227 413.682C500.955 410.106 500.318 405.788 500.318 400.727C500.318 395.697 500.955 391.402 502.227 387.841C503.515 384.265 505.364 381.538 507.773 379.659C510.197 377.765 513.106 376.818 516.5 376.818C519.894 376.818 522.795 377.765 525.205 379.659C527.629 381.538 529.477 384.265 530.75 387.841C532.038 391.402 532.682 395.697 532.682 400.727C532.682 405.788 532.045 410.106 530.773 413.682C529.5 417.242 527.659 419.962 525.25 421.841C522.841 423.705 519.924 424.636 516.5 424.636ZM516.5 419.636C519.894 419.636 522.53 418 524.409 414.727C526.288 411.455 527.227 406.788 527.227 400.727C527.227 396.697 526.795 393.265 525.932 390.432C525.083 387.598 523.856 385.439 522.25 383.955C520.659 382.47 518.742 381.727 516.5 381.727C513.136 381.727 510.508 383.386 508.614 386.705C506.72 390.008 505.773 394.682 505.773 400.727C505.773 404.758 506.197 408.182 507.045 411C507.894 413.818 509.114 415.962 510.705 417.432C512.311 418.902 514.242 419.636 516.5 419.636ZM556.5 424.636C553.076 424.636 550.159 423.705 547.75 421.841C545.341 419.962 543.5 417.242 542.227 413.682C540.955 410.106 540.318 405.788 540.318 400.727C540.318 395.697 540.955 391.402 542.227 387.841C543.515 384.265 545.364 381.538 547.773 379.659C550.197 377.765 553.106 376.818 556.5 376.818C559.894 376.818 562.795 377.765 565.205 379.659C567.629 381.538 569.477 384.265 570.75 387.841C572.038 391.402 572.682 395.697 572.682 400.727C572.682 405.788 572.045 410.106 570.773 413.682C569.5 417.242 567.659 419.962 565.25 421.841C562.841 423.705 559.924 424.636 556.5 424.636ZM556.5 419.636C559.894 419.636 562.53 418 564.409 414.727C566.288 411.455 567.227 406.788 567.227 400.727C567.227 396.697 566.795 393.265 565.932 390.432C565.083 387.598 563.856 385.439 562.25 383.955C560.659 382.47 558.742 381.727 556.5 381.727C553.136 381.727 550.508 383.386 548.614 386.705C546.72 390.008 545.773 394.682 545.773 400.727C545.773 404.758 546.197 408.182 547.045 411C547.894 413.818 549.114 415.962 550.705 417.432C552.311 418.902 554.242 419.636 556.5 419.636ZM602.864 377.455L614.864 396.818H615.227L627.227 377.455H633.864L619.227 400.727L633.864 424H627.227L615.227 405H614.864L602.864 424H596.227L611.227 400.727L596.227 377.455H602.864ZM673.29 424.636C670.169 424.636 667.411 424.083 665.017 422.977C662.638 421.856 660.782 420.318 659.449 418.364C658.116 416.394 657.456 414.152 657.472 411.636C657.456 409.667 657.843 407.848 658.631 406.182C659.419 404.5 660.494 403.098 661.858 401.977C663.237 400.841 664.775 400.121 666.472 399.818V399.545C664.244 398.97 662.472 397.72 661.153 395.795C659.835 393.856 659.184 391.652 659.199 389.182C659.184 386.818 659.782 384.705 660.994 382.841C662.206 380.977 663.873 379.508 665.994 378.432C668.131 377.356 670.563 376.818 673.29 376.818C675.987 376.818 678.396 377.356 680.517 378.432C682.638 379.508 684.305 380.977 685.517 382.841C686.744 384.705 687.366 386.818 687.381 389.182C687.366 391.652 686.691 393.856 685.358 395.795C684.04 397.72 682.29 398.97 680.108 399.545V399.818C681.79 400.121 683.305 400.841 684.653 401.977C686.002 403.098 687.078 404.5 687.881 406.182C688.684 407.848 689.093 409.667 689.108 411.636C689.093 414.152 688.411 416.394 687.062 418.364C685.729 420.318 683.873 421.856 681.494 422.977C679.131 424.083 676.396 424.636 673.29 424.636ZM673.29 419.636C675.396 419.636 677.214 419.295 678.744 418.614C680.275 417.932 681.456 416.97 682.29 415.727C683.123 414.485 683.547 413.03 683.562 411.364C683.547 409.606 683.093 408.053 682.199 406.705C681.305 405.356 680.085 404.295 678.54 403.523C677.009 402.75 675.259 402.364 673.29 402.364C671.305 402.364 669.532 402.75 667.972 403.523C666.426 404.295 665.206 405.356 664.312 406.705C663.434 408.053 663.002 409.606 663.017 411.364C663.002 413.03 663.403 414.485 664.222 415.727C665.055 416.97 666.244 417.932 667.79 418.614C669.335 419.295 671.169 419.636 673.29 419.636ZM673.29 397.545C674.956 397.545 676.434 397.212 677.722 396.545C679.025 395.879 680.047 394.947 680.79 393.75C681.532 392.553 681.911 391.152 681.926 389.545C681.911 387.97 681.54 386.598 680.812 385.432C680.085 384.25 679.078 383.341 677.79 382.705C676.502 382.053 675.002 381.727 673.29 381.727C671.547 381.727 670.025 382.053 668.722 382.705C667.419 383.341 666.411 384.25 665.699 385.432C664.987 386.598 664.638 387.97 664.653 389.545C664.638 391.152 664.994 392.553 665.722 393.75C666.464 394.947 667.487 395.879 668.79 396.545C670.093 397.212 671.593 397.545 673.29 397.545ZM713 424.636C709.576 424.636 706.659 423.705 704.25 421.841C701.841 419.962 700 417.242 698.727 413.682C697.455 410.106 696.818 405.788 696.818 400.727C696.818 395.697 697.455 391.402 698.727 387.841C700.015 384.265 701.864 381.538 704.273 379.659C706.697 377.765 709.606 376.818 713 376.818C716.394 376.818 719.295 377.765 721.705 379.659C724.129 381.538 725.977 384.265 727.25 387.841C728.538 391.402 729.182 395.697 729.182 400.727C729.182 405.788 728.545 410.106 727.273 413.682C726 417.242 724.159 419.962 721.75 421.841C719.341 423.705 716.424 424.636 713 424.636ZM713 419.636C716.394 419.636 719.03 418 720.909 414.727C722.788 411.455 723.727 406.788 723.727 400.727C723.727 396.697 723.295 393.265 722.432 390.432C721.583 387.598 720.356 385.439 718.75 383.955C717.159 382.47 715.242 381.727 713 381.727C709.636 381.727 707.008 383.386 705.114 386.705C703.22 390.008 702.273 394.682 702.273 400.727C702.273 404.758 702.697 408.182 703.545 411C704.394 413.818 705.614 415.962 707.205 417.432C708.811 418.902 710.742 419.636 713 419.636ZM753 424.636C749.576 424.636 746.659 423.705 744.25 421.841C741.841 419.962 740 417.242 738.727 413.682C737.455 410.106 736.818 405.788 736.818 400.727C736.818 395.697 737.455 391.402 738.727 387.841C740.015 384.265 741.864 381.538 744.273 379.659C746.697 377.765 749.606 376.818 753 376.818C756.394 376.818 759.295 377.765 761.705 379.659C764.129 381.538 765.977 384.265 767.25 387.841C768.538 391.402 769.182 395.697 769.182 400.727C769.182 405.788 768.545 410.106 767.273 413.682C766 417.242 764.159 419.962 761.75 421.841C759.341 423.705 756.424 424.636 753 424.636ZM753 419.636C756.394 419.636 759.03 418 760.909 414.727C762.788 411.455 763.727 406.788 763.727 400.727C763.727 396.697 763.295 393.265 762.432 390.432C761.583 387.598 760.356 385.439 758.75 383.955C757.159 382.47 755.242 381.727 753 381.727C749.636 381.727 747.008 383.386 745.114 386.705C743.22 390.008 742.273 394.682 742.273 400.727C742.273 404.758 742.697 408.182 743.545 411C744.394 413.818 745.614 415.962 747.205 417.432C748.811 418.902 750.742 419.636 753 419.636Z" fill="black"/>
</svg>
