<svg width="165" height="30" viewBox="0 0 165 30" fill="none" xmlns="http://www.w3.org/2000/svg">
<g clip-path="url(#clip0_9_2)">
<rect width="165" height="30" fill="white"/>
<path d="M4.21094 2.91602C5.48828 2.97461 6.57227 3.02148 7.46289 3.05664C8.35352 3.08008 9.14453 3.0918 9.83594 3.0918C10.3398 3.0918 10.9785 3.08008 11.752 3.05664C12.5254 3.02148 13.5918 2.97461 14.9512 2.91602V4.49805C14.166 4.49805 13.5918 4.56836 13.2285 4.70898C12.8652 4.83789 12.6836 5.05469 12.6836 5.35938C12.6836 5.78125 12.918 6.41406 13.3867 7.25781C13.5156 7.49219 13.6152 7.67383 13.6855 7.80273L17.5703 14.7461L18.748 12.707C21.2324 8.39453 22.4746 5.98047 22.4746 5.46484C22.4746 5.125 22.3398 4.87891 22.0703 4.72656C21.8008 4.57422 21.3789 4.49805 20.8047 4.49805H20.418V2.91602C21.4492 2.97461 22.2871 3.02148 22.9316 3.05664C23.5879 3.08008 24.1387 3.0918 24.584 3.0918C25.0527 3.0918 25.6211 3.08008 26.2891 3.05664C26.9688 3.02148 27.8184 2.97461 28.8379 2.91602V4.44531C28.791 4.44531 28.7383 4.44531 28.6797 4.44531C28.6211 4.43359 28.5332 4.42773 28.416 4.42773C27.2793 4.42773 25.9141 5.72852 24.3203 8.33008C23.9688 8.92773 23.6875 9.39062 23.4766 9.71875L18.7656 17.2773L18.8008 22.9023C18.8242 24.4023 19.0117 25.3691 19.3633 25.8027C19.7148 26.2363 20.4004 26.4531 21.4199 26.4531C21.4902 26.4531 21.6074 26.4473 21.7715 26.4355C21.9355 26.4238 22.0586 26.418 22.1406 26.418V28C20.8516 27.9297 19.7031 27.877 18.6953 27.8418C17.6875 27.8066 16.832 27.7891 16.1289 27.7891C15.4961 27.7891 14.2305 27.8301 12.332 27.9121C11.5352 27.9473 10.9082 27.9766 10.4512 28V26.418C10.5449 26.418 10.6738 26.4238 10.8379 26.4355C11.0137 26.4473 11.1367 26.4531 11.207 26.4531C12.2383 26.4531 12.9355 26.2246 13.2988 25.7676C13.6738 25.3105 13.873 24.3789 13.8965 22.9727L13.9316 17.418L8.06055 7.5918C7.97852 7.45117 7.85547 7.24609 7.69141 6.97656C6.67188 5.30078 5.68164 4.46289 4.7207 4.46289C4.5918 4.46289 4.48633 4.46875 4.4043 4.48047C4.33398 4.48047 4.26953 4.48047 4.21094 4.48047V2.91602ZM35.4297 12.3379C33.9883 12.3379 32.8691 12.877 32.0723 13.9551C31.2871 15.0215 30.8945 16.5332 30.8945 18.4902C30.8945 20.8691 31.3457 22.7559 32.248 24.1504C33.1504 25.5449 34.3633 26.2422 35.8867 26.2422C37.3398 26.2422 38.4824 25.6797 39.3145 24.5547C40.1582 23.4297 40.5801 21.8887 40.5801 19.9316C40.5801 17.5996 40.1113 15.7539 39.1738 14.3945C38.248 13.0234 37 12.3379 35.4297 12.3379ZM35.7812 10.0352C38.5352 10.0352 40.791 10.8848 42.5488 12.584C44.3066 14.2715 45.1855 16.4102 45.1855 19C45.1855 21.7188 44.2656 23.9922 42.4258 25.8203C40.5977 27.6367 38.3125 28.5449 35.5703 28.5449C32.8281 28.5449 30.5898 27.6895 28.8555 25.9785C27.1211 24.2676 26.2539 22.0762 26.2539 19.4043C26.2539 16.7793 27.1797 14.5645 29.0312 12.7598C30.8945 10.9434 33.1445 10.0352 35.7812 10.0352ZM56.6289 12.3379C55.1875 12.3379 54.0684 12.877 53.2715 13.9551C52.4863 15.0215 52.0938 16.5332 52.0938 18.4902C52.0938 20.8691 52.5449 22.7559 53.4473 24.1504C54.3496 25.5449 55.5625 26.2422 57.0859 26.2422C58.5391 26.2422 59.6816 25.6797 60.5137 24.5547C61.3574 23.4297 61.7793 21.8887 61.7793 19.9316C61.7793 17.5996 61.3105 15.7539 60.373 14.3945C59.4473 13.0234 58.1992 12.3379 56.6289 12.3379ZM56.9805 10.0352C59.7344 10.0352 61.9902 10.8848 63.748 12.584C65.5059 14.2715 66.3848 16.4102 66.3848 19C66.3848 21.7188 65.4648 23.9922 63.625 25.8203C61.7969 27.6367 59.5117 28.5449 56.7695 28.5449C54.0273 28.5449 51.7891 27.6895 50.0547 25.9785C48.3203 24.2676 47.4531 22.0762 47.4531 19.4043C47.4531 16.7793 48.3789 14.5645 50.2305 12.7598C52.0938 10.9434 54.3438 10.0352 56.9805 10.0352ZM75.2266 10L74.9453 12.8828C76.3516 11.875 77.5527 11.1426 78.5488 10.6855C79.5449 10.2285 80.4297 10 81.2031 10C83.043 10 84.4258 10.5391 85.3516 11.6172C86.2891 12.6836 86.7578 14.2656 86.7578 16.3633C86.7578 16.7617 86.7461 17.6875 86.7227 19.1406C86.6992 20.582 86.6875 21.8301 86.6875 22.8848C86.6875 24.6074 86.8105 25.6445 87.0566 25.9961C87.3145 26.3477 87.8242 26.5234 88.5859 26.5234H88.9551L88.9199 28C87.877 27.9297 86.9863 27.877 86.248 27.8418C85.5098 27.8066 84.9121 27.7891 84.4551 27.7891C83.9629 27.7891 83.3535 27.8066 82.627 27.8418C81.9121 27.877 81.0801 27.9297 80.1309 28V26.5234H80.3418C81.7949 26.5234 82.5391 25.0586 82.5742 22.1289C82.5742 22.0352 82.5742 21.9648 82.5742 21.918V18.209C82.5742 16.1816 82.3398 14.8164 81.8711 14.1133C81.4023 13.4102 80.6055 13.0586 79.4805 13.0586C78.8711 13.0586 78.2148 13.1875 77.5117 13.4453C76.8086 13.6914 76.0352 14.0781 75.1914 14.6055C75.1445 15.6602 75.1094 16.7559 75.0859 17.8926C75.0625 19.0293 75.0508 20.248 75.0508 21.5488V22.9902C75.0508 24.5723 75.1738 25.5566 75.4199 25.9434C75.6777 26.3301 76.1816 26.5234 76.9316 26.5234H77.2129V28C76.2285 27.9297 75.3672 27.877 74.6289 27.8418C73.8906 27.8066 73.2637 27.7891 72.748 27.7891C72.2441 27.7891 71.623 27.8066 70.8848 27.8418C70.1465 27.877 69.291 27.9297 68.3184 28V26.5234H68.7227C70.1758 26.5234 70.9141 25.0527 70.9375 22.1113C70.9375 21.7598 70.9434 21.4902 70.9551 21.3027L70.9902 17.6641V16.1172C70.9902 14.793 70.8848 13.9375 70.6738 13.5508C70.4746 13.1523 70.0996 12.9531 69.5488 12.9531C69.4434 12.9531 69.209 12.9707 68.8457 13.0059C68.7754 13.0176 68.7227 13.0234 68.6875 13.0234L68.582 11.6523C69.5547 11.5 70.5801 11.2891 71.6582 11.0195C72.7363 10.75 73.9258 10.4102 75.2266 10ZM102.121 2.91602C103.117 2.97461 104.055 3.02148 104.934 3.05664C105.824 3.08008 106.615 3.0918 107.307 3.0918C108.021 3.0918 108.818 3.08008 109.697 3.05664C110.588 3.02148 111.613 2.97461 112.773 2.91602V4.49805C112.703 4.49805 112.604 4.49219 112.475 4.48047C112.346 4.46875 112.258 4.46289 112.211 4.46289C111.227 4.46289 110.559 4.75586 110.207 5.3418C109.855 5.92773 109.68 7.25195 109.68 9.31445C109.68 9.61914 109.686 10.1699 109.697 10.9668C109.709 11.7637 109.715 12.4141 109.715 12.918L109.75 25.2578L109.855 25.2754C111.367 25.3691 112.51 25.416 113.283 25.416C116.225 25.416 118.152 25.1113 119.066 24.502C119.98 23.8926 120.73 22.7324 121.316 21.0215L122.934 21.5137C122.57 22.5801 122.242 23.6523 121.949 24.7305C121.668 25.8086 121.422 26.8984 121.211 28C119.137 27.9297 117.209 27.877 115.428 27.8418C113.646 27.8066 112.018 27.7891 110.541 27.7891C109.076 27.7891 107.6 27.8066 106.111 27.8418C104.635 27.877 103.164 27.9297 101.699 28V26.4531H102.191C102.824 26.4531 103.311 26.3887 103.65 26.2598C103.99 26.1309 104.236 25.9199 104.389 25.627C104.717 24.9824 104.893 22.5742 104.916 18.4023C104.928 17.8633 104.934 17.4531 104.934 17.1719L104.969 13.3398C104.969 12.8242 104.975 12.1504 104.986 11.3184C104.998 10.4746 105.004 9.88867 105.004 9.56055C105.004 7.45117 104.828 6.07422 104.477 5.42969C104.137 4.78516 103.486 4.46289 102.525 4.46289H102.121V2.91602ZM140.494 18.6309L133.164 18.6484C131.91 18.6484 130.973 18.6602 130.352 18.6836C129.73 18.6953 129.156 18.7305 128.629 18.7891C128.629 20.8867 129.145 22.5332 130.176 23.7285C131.219 24.9238 132.654 25.5215 134.482 25.5215C135.361 25.5215 136.229 25.3867 137.084 25.1172C137.951 24.8359 138.824 24.4141 139.703 23.8516L140.494 25.3633C139.135 26.4414 137.799 27.25 136.486 27.7891C135.174 28.3164 133.873 28.5801 132.584 28.5801C130.135 28.5801 128.125 27.7656 126.555 26.1367C124.984 24.4961 124.199 22.3926 124.199 19.8262C124.199 17.0371 125.049 14.7109 126.748 12.8477C128.447 10.9727 130.533 10.0352 133.006 10.0352C135.221 10.0352 137.014 10.8203 138.385 12.3906C139.756 13.9492 140.459 16.0293 140.494 18.6309ZM136.328 16.4863C136.082 15.1152 135.631 14.0488 134.975 13.2871C134.33 12.5137 133.557 12.127 132.654 12.127C131.576 12.127 130.686 12.543 129.982 13.375C129.279 14.207 128.84 15.373 128.664 16.873H129.771C131.213 16.873 132.467 16.8438 133.533 16.7852C134.6 16.7148 135.531 16.6152 136.328 16.4863ZM159.584 18.6309L152.254 18.6484C151 18.6484 150.062 18.6602 149.441 18.6836C148.82 18.6953 148.246 18.7305 147.719 18.7891C147.719 20.8867 148.234 22.5332 149.266 23.7285C150.309 24.9238 151.744 25.5215 153.572 25.5215C154.451 25.5215 155.318 25.3867 156.174 25.1172C157.041 24.8359 157.914 24.4141 158.793 23.8516L159.584 25.3633C158.225 26.4414 156.889 27.25 155.576 27.7891C154.264 28.3164 152.963 28.5801 151.674 28.5801C149.225 28.5801 147.215 27.7656 145.645 26.1367C144.074 24.4961 143.289 22.3926 143.289 19.8262C143.289 17.0371 144.139 14.7109 145.838 12.8477C147.537 10.9727 149.623 10.0352 152.096 10.0352C154.311 10.0352 156.104 10.8203 157.475 12.3906C158.846 13.9492 159.549 16.0293 159.584 18.6309ZM155.418 16.4863C155.172 15.1152 154.721 14.0488 154.064 13.2871C153.42 12.5137 152.646 12.127 151.744 12.127C150.666 12.127 149.775 12.543 149.072 13.375C148.369 14.207 147.93 15.373 147.754 16.873H148.861C150.303 16.873 151.557 16.8438 152.623 16.7852C153.689 16.7148 154.621 16.6152 155.418 16.4863Z" fill="black"/>
</g>
<defs>
<clipPath id="clip0_9_2">
<rect width="165" height="30" fill="white"/>
</clipPath>
</defs>
</svg>
