<svg width="269" height="86" viewBox="0 0 269 86" fill="none" xmlns="http://www.w3.org/2000/svg">
<rect width="269" height="86" fill="white"/>
<path d="M56.2109 30.916C57.4883 30.9746 58.5723 31.0215 59.4629 31.0566C60.3535 31.0801 61.1445 31.0918 61.8359 31.0918C62.3398 31.0918 62.9785 31.0801 63.752 31.0566C64.5254 31.0215 65.5918 30.9746 66.9512 30.916V32.498C66.166 32.498 65.5918 32.5684 65.2285 32.709C64.8652 32.8379 64.6836 33.0547 64.6836 33.3594C64.6836 33.7812 64.918 34.4141 65.3867 35.2578C65.5156 35.4922 65.6152 35.6738 65.6855 35.8027L69.5703 42.7461L70.748 40.707C73.2324 36.3945 74.4746 33.9805 74.4746 33.4648C74.4746 33.125 74.3398 32.8789 74.0703 32.7266C73.8008 32.5742 73.3789 32.498 72.8047 32.498H72.418V30.916C73.4492 30.9746 74.2871 31.0215 74.9316 31.0566C75.5879 31.0801 76.1387 31.0918 76.584 31.0918C77.0527 31.0918 77.6211 31.0801 78.2891 31.0566C78.9688 31.0215 79.8184 30.9746 80.8379 30.916V32.4453C80.791 32.4453 80.7383 32.4453 80.6797 32.4453C80.6211 32.4336 80.5332 32.4277 80.416 32.4277C79.2793 32.4277 77.9141 33.7285 76.3203 36.3301C75.9688 36.9277 75.6875 37.3906 75.4766 37.7188L70.7656 45.2773L70.8008 50.9023C70.8242 52.4023 71.0117 53.3691 71.3633 53.8027C71.7148 54.2363 72.4004 54.4531 73.4199 54.4531C73.4902 54.4531 73.6074 54.4473 73.7715 54.4355C73.9355 54.4238 74.0586 54.418 74.1406 54.418V56C72.8516 55.9297 71.7031 55.877 70.6953 55.8418C69.6875 55.8066 68.832 55.7891 68.1289 55.7891C67.4961 55.7891 66.2305 55.8301 64.332 55.9121C63.5352 55.9473 62.9082 55.9766 62.4512 56V54.418C62.5449 54.418 62.6738 54.4238 62.8379 54.4355C63.0137 54.4473 63.1367 54.4531 63.207 54.4531C64.2383 54.4531 64.9355 54.2246 65.2988 53.7676C65.6738 53.3105 65.873 52.3789 65.8965 50.9727L65.9316 45.418L60.0605 35.5918C59.9785 35.4512 59.8555 35.2461 59.6914 34.9766C58.6719 33.3008 57.6816 32.4629 56.7207 32.4629C56.5918 32.4629 56.4863 32.4688 56.4043 32.4805C56.334 32.4805 56.2695 32.4805 56.2109 32.4805V30.916ZM87.4297 40.3379C85.9883 40.3379 84.8691 40.877 84.0723 41.9551C83.2871 43.0215 82.8945 44.5332 82.8945 46.4902C82.8945 48.8691 83.3457 50.7559 84.248 52.1504C85.1504 53.5449 86.3633 54.2422 87.8867 54.2422C89.3398 54.2422 90.4824 53.6797 91.3145 52.5547C92.1582 51.4297 92.5801 49.8887 92.5801 47.9316C92.5801 45.5996 92.1113 43.7539 91.1738 42.3945C90.248 41.0234 89 40.3379 87.4297 40.3379ZM87.7812 38.0352C90.5352 38.0352 92.791 38.8848 94.5488 40.584C96.3066 42.2715 97.1855 44.4102 97.1855 47C97.1855 49.7188 96.2656 51.9922 94.4258 53.8203C92.5977 55.6367 90.3125 56.5449 87.5703 56.5449C84.8281 56.5449 82.5898 55.6895 80.8555 53.9785C79.1211 52.2676 78.2539 50.0762 78.2539 47.4043C78.2539 44.7793 79.1797 42.5645 81.0312 40.7598C82.8945 38.9434 85.1445 38.0352 87.7812 38.0352ZM108.629 40.3379C107.188 40.3379 106.068 40.877 105.271 41.9551C104.486 43.0215 104.094 44.5332 104.094 46.4902C104.094 48.8691 104.545 50.7559 105.447 52.1504C106.35 53.5449 107.562 54.2422 109.086 54.2422C110.539 54.2422 111.682 53.6797 112.514 52.5547C113.357 51.4297 113.779 49.8887 113.779 47.9316C113.779 45.5996 113.311 43.7539 112.373 42.3945C111.447 41.0234 110.199 40.3379 108.629 40.3379ZM108.98 38.0352C111.734 38.0352 113.99 38.8848 115.748 40.584C117.506 42.2715 118.385 44.4102 118.385 47C118.385 49.7188 117.465 51.9922 115.625 53.8203C113.797 55.6367 111.512 56.5449 108.77 56.5449C106.027 56.5449 103.789 55.6895 102.055 53.9785C100.32 52.2676 99.4531 50.0762 99.4531 47.4043C99.4531 44.7793 100.379 42.5645 102.23 40.7598C104.094 38.9434 106.344 38.0352 108.98 38.0352ZM127.227 38L126.945 40.8828C128.352 39.875 129.553 39.1426 130.549 38.6855C131.545 38.2285 132.43 38 133.203 38C135.043 38 136.426 38.5391 137.352 39.6172C138.289 40.6836 138.758 42.2656 138.758 44.3633C138.758 44.7617 138.746 45.6875 138.723 47.1406C138.699 48.582 138.688 49.8301 138.688 50.8848C138.688 52.6074 138.811 53.6445 139.057 53.9961C139.314 54.3477 139.824 54.5234 140.586 54.5234H140.955L140.92 56C139.877 55.9297 138.986 55.877 138.248 55.8418C137.51 55.8066 136.912 55.7891 136.455 55.7891C135.963 55.7891 135.354 55.8066 134.627 55.8418C133.912 55.877 133.08 55.9297 132.131 56V54.5234H132.342C133.795 54.5234 134.539 53.0586 134.574 50.1289C134.574 50.0352 134.574 49.9648 134.574 49.918V46.209C134.574 44.1816 134.34 42.8164 133.871 42.1133C133.402 41.4102 132.605 41.0586 131.48 41.0586C130.871 41.0586 130.215 41.1875 129.512 41.4453C128.809 41.6914 128.035 42.0781 127.191 42.6055C127.145 43.6602 127.109 44.7559 127.086 45.8926C127.062 47.0293 127.051 48.248 127.051 49.5488V50.9902C127.051 52.5723 127.174 53.5566 127.42 53.9434C127.678 54.3301 128.182 54.5234 128.932 54.5234H129.213V56C128.229 55.9297 127.367 55.877 126.629 55.8418C125.891 55.8066 125.264 55.7891 124.748 55.7891C124.244 55.7891 123.623 55.8066 122.885 55.8418C122.146 55.877 121.291 55.9297 120.318 56V54.5234H120.723C122.176 54.5234 122.914 53.0527 122.938 50.1113C122.938 49.7598 122.943 49.4902 122.955 49.3027L122.99 45.6641V44.1172C122.99 42.793 122.885 41.9375 122.674 41.5508C122.475 41.1523 122.1 40.9531 121.549 40.9531C121.443 40.9531 121.209 40.9707 120.846 41.0059C120.775 41.0176 120.723 41.0234 120.688 41.0234L120.582 39.6523C121.555 39.5 122.58 39.2891 123.658 39.0195C124.736 38.75 125.926 38.4102 127.227 38ZM154.121 30.916C155.117 30.9746 156.055 31.0215 156.934 31.0566C157.824 31.0801 158.615 31.0918 159.307 31.0918C160.021 31.0918 160.818 31.0801 161.697 31.0566C162.588 31.0215 163.613 30.9746 164.773 30.916V32.498C164.703 32.498 164.604 32.4922 164.475 32.4805C164.346 32.4688 164.258 32.4629 164.211 32.4629C163.227 32.4629 162.559 32.7559 162.207 33.3418C161.855 33.9277 161.68 35.252 161.68 37.3145C161.68 37.6191 161.686 38.1699 161.697 38.9668C161.709 39.7637 161.715 40.4141 161.715 40.918L161.75 53.2578L161.855 53.2754C163.367 53.3691 164.51 53.416 165.283 53.416C168.225 53.416 170.152 53.1113 171.066 52.502C171.98 51.8926 172.73 50.7324 173.316 49.0215L174.934 49.5137C174.57 50.5801 174.242 51.6523 173.949 52.7305C173.668 53.8086 173.422 54.8984 173.211 56C171.137 55.9297 169.209 55.877 167.428 55.8418C165.646 55.8066 164.018 55.7891 162.541 55.7891C161.076 55.7891 159.6 55.8066 158.111 55.8418C156.635 55.877 155.164 55.9297 153.699 56V54.4531H154.191C154.824 54.4531 155.311 54.3887 155.65 54.2598C155.99 54.1309 156.236 53.9199 156.389 53.627C156.717 52.9824 156.893 50.5742 156.916 46.4023C156.928 45.8633 156.934 45.4531 156.934 45.1719L156.969 41.3398C156.969 40.8242 156.975 40.1504 156.986 39.3184C156.998 38.4746 157.004 37.8887 157.004 37.5605C157.004 35.4512 156.828 34.0742 156.477 33.4297C156.137 32.7852 155.486 32.4629 154.525 32.4629H154.121V30.916ZM192.494 46.6309L185.164 46.6484C183.91 46.6484 182.973 46.6602 182.352 46.6836C181.73 46.6953 181.156 46.7305 180.629 46.7891C180.629 48.8867 181.145 50.5332 182.176 51.7285C183.219 52.9238 184.654 53.5215 186.482 53.5215C187.361 53.5215 188.229 53.3867 189.084 53.1172C189.951 52.8359 190.824 52.4141 191.703 51.8516L192.494 53.3633C191.135 54.4414 189.799 55.25 188.486 55.7891C187.174 56.3164 185.873 56.5801 184.584 56.5801C182.135 56.5801 180.125 55.7656 178.555 54.1367C176.984 52.4961 176.199 50.3926 176.199 47.8262C176.199 45.0371 177.049 42.7109 178.748 40.8477C180.447 38.9727 182.533 38.0352 185.006 38.0352C187.221 38.0352 189.014 38.8203 190.385 40.3906C191.756 41.9492 192.459 44.0293 192.494 46.6309ZM188.328 44.4863C188.082 43.1152 187.631 42.0488 186.975 41.2871C186.33 40.5137 185.557 40.127 184.654 40.127C183.576 40.127 182.686 40.543 181.982 41.375C181.279 42.207 180.84 43.373 180.664 44.873H181.771C183.213 44.873 184.467 44.8438 185.533 44.7852C186.6 44.7148 187.531 44.6152 188.328 44.4863ZM211.584 46.6309L204.254 46.6484C203 46.6484 202.062 46.6602 201.441 46.6836C200.82 46.6953 200.246 46.7305 199.719 46.7891C199.719 48.8867 200.234 50.5332 201.266 51.7285C202.309 52.9238 203.744 53.5215 205.572 53.5215C206.451 53.5215 207.318 53.3867 208.174 53.1172C209.041 52.8359 209.914 52.4141 210.793 51.8516L211.584 53.3633C210.225 54.4414 208.889 55.25 207.576 55.7891C206.264 56.3164 204.963 56.5801 203.674 56.5801C201.225 56.5801 199.215 55.7656 197.645 54.1367C196.074 52.4961 195.289 50.3926 195.289 47.8262C195.289 45.0371 196.139 42.7109 197.838 40.8477C199.537 38.9727 201.623 38.0352 204.096 38.0352C206.311 38.0352 208.104 38.8203 209.475 40.3906C210.846 41.9492 211.549 44.0293 211.584 46.6309ZM207.418 44.4863C207.172 43.1152 206.721 42.0488 206.064 41.2871C205.42 40.5137 204.646 40.127 203.744 40.127C202.666 40.127 201.775 40.543 201.072 41.375C200.369 42.207 199.93 43.373 199.754 44.873H200.861C202.303 44.873 203.557 44.8438 204.623 44.7852C205.689 44.7148 206.621 44.6152 207.418 44.4863Z" fill="black"/>
</svg>
